<svg viewBox="0 0 300 300" xmlns="http://www.w3.org/2000/svg">
  <!-- Fundo redondo -->
  <circle cx="150" cy="150" r="140" fill="#fff0f3"></circle>

  <!-- Prato com sombra -->
  <ellipse cx="150" cy="235" rx="90" ry="10" fill="#bbb" opacity="0.3"></ellipse>
  <ellipse cx="150" cy="230" rx="90" ry="10" fill="#e0e0e0"></ellipse>

  <!-- Base do bolo -->
  <path d="M80 130 
           Q70 145 70 160 
           L70 210 
           Q70 220 85 220 
           L215 220 
           Q230 220 230 210 
           L230 160 
           Q230 145 220 130 
           Z" fill="white" stroke="#cc0000" stroke-width="3" rx="10"></path>

  <!-- Cobertura vermelha escorrendo com suavidade -->
  <path d="M80 130 
           Q90 115 105 130 
           Q120 115 135 130 
           Q150 115 165 130 
           Q180 115 195 130 
           Q210 115 220 130 
           Q225 135 220 140 
           Q215 145 210 140 
           Q205 135 200 140 
           Q195 145 190 140 
           Q185 135 180 140 
           Q175 145 170 140 
           Q165 135 160 140 
           Q155 145 150 140 
           Q145 135 140 140 
           Q135 145 130 140 
           Q125 135 120 140 
           Q115 145 110 140 
           Q105 135 100 140 
           Q95 145 90 140 
           Q85 135 80 140 
           Q78 138 80 130 
           Z" fill="crimson" opacity="0.95"></path>

  <!-- Cerejas -->
  <circle cx="100" cy="125" r="6" fill="red" stroke="#900" stroke-width="1"></circle>
  <circle cx="125" cy="120" r="6" fill="red" stroke="#900" stroke-width="1"></circle>
  <circle cx="150" cy="118" r="6" fill="red" stroke="#900" stroke-width="1"></circle>
  <circle cx="175" cy="120" r="6" fill="red" stroke="#900" stroke-width="1"></circle>
  <circle cx="200" cy="125" r="6" fill="red" stroke="#900" stroke-width="1"></circle>

  <!-- Brilho nas cerejas -->
  <circle cx="102" cy="123" r="1.5" fill="white" opacity="0.6"></circle>
  <circle cx="127" cy="118" r="1.5" fill="white" opacity="0.6"></circle>
  <circle cx="152" cy="116" r="1.5" fill="white" opacity="0.6"></circle>
  <circle cx="177" cy="118" r="1.5" fill="white" opacity="0.6"></circle>
  <circle cx="202" cy="123" r="1.5" fill="white" opacity="0.6"></circle>
</svg>
