<?xml version="1.0" standalone="no"?>
<!DOCTYPE svg PUBLIC "-//W3C//DTD SVG 20010904//EN"
 "http://www.w3.org/TR/2001/REC-SVG-20010904/DTD/svg10.dtd">
<svg version="1.0" xmlns="http://www.w3.org/2000/svg"
 width="225.000000pt" height="224.000000pt" viewBox="0 0 225.000000 224.000000"
 preserveAspectRatio="xMidYMid meet">

<g transform="translate(0.000000,224.000000) scale(0.100000,-0.100000)"
fill="#000000" stroke="none">
<path d="M1535 1631 c-116 -32 -210 -133 -203 -218 3 -37 4 -38 43 -38 38 0
40 -2 40 -30 0 -25 -5 -32 -32 -40 -32 -9 -33 -10 -33 -67 0 -64 12 -78 49
-58 19 10 21 8 21 -24 0 -55 -44 -86 -120 -86 -56 0 -70 25 -70 123 0 66 -2
78 -15 73 -29 -11 -17 39 15 62 16 12 36 35 45 51 15 29 14 30 -31 70 -155
136 -405 160 -613 59 -270 -131 -344 -483 -152 -725 74 -94 228 -173 335 -173
42 0 43 1 44 35 5 126 112 179 452 225 114 15 217 43 298 83 80 38 198 150
230 218 102 214 -7 441 -223 463 -27 3 -63 1 -80 -3z m23 -113 c20 -20 14 -45
-19 -72 -35 -30 -61 -33 -83 -10 -22 22 -20 41 9 69 26 27 73 33 93 13z m118
-103 c13 -51 -46 -77 -68 -30 -14 30 3 55 38 55 17 0 25 -7 30 -25z m-116
-126 c0 -66 -4 -129 -10 -139 -10 -18 -59 -40 -91 -40 -18 0 -19 10 -19 140
l0 139 33 10 c17 5 44 10 60 10 l27 1 0 -121z m-763 7 c20 -25 87 -292 81
-322 -3 -19 -53 -37 -80 -28 -9 3 -20 19 -23 35 -6 27 -10 30 -32 24 -14 -3
-38 -9 -54 -12 -22 -4 -34 -16 -48 -48 -15 -34 -27 -45 -56 -55 -31 -10 -39
-10 -52 2 -13 13 -6 37 57 194 51 127 80 187 101 207 37 34 80 36 106 3z m378
-26 c56 -53 53 -164 -6 -214 -39 -33 -74 -42 -121 -29 l-38 10 0 -62 c0 -73
-15 -92 -75 -97 l-40 -3 -3 178 c-2 141 0 177 11 177 7 0 18 -5 25 -12 9 -9
17 -5 33 17 51 64 163 83 214 35z"/>
<path d="M709 1125 l-16 -45 26 7 c14 3 27 7 29 8 6 5 -10 75 -17 75 -3 0 -13
-20 -22 -45z"/>
<path d="M1051 1176 c-20 -24 -9 -51 19 -51 21 0 25 5 25 30 0 34 -24 45 -44
21z"/>
</g>
</svg>
