<?xml version="1.0" standalone="no"?>
<!DOCTYPE svg PUBLIC "-//W3C//DTD SVG 20010904//EN"
 "http://www.w3.org/TR/2001/REC-SVG-20010904/DTD/svg10.dtd">
<svg version="1.0" xmlns="http://www.w3.org/2000/svg"
 width="220.000000pt" height="140.000000pt" viewBox="0 0 220.000000 140.000000"
 preserveAspectRatio="xMidYMid meet">

<g transform="translate(0.000000,140.000000) scale(0.100000,-0.100000)"
fill="#000000" stroke="none">
<path d="M403 1093 c-27 -5 -28 -11 -8 -49 11 -22 15 -63 15 -161 0 -156 -2
-153 112 -153 142 0 220 67 220 189 0 128 -75 182 -247 179 -38 0 -80 -3 -92
-5z m212 -93 c28 -31 31 -117 6 -157 -20 -32 -76 -53 -100 -38 -12 7 -16 197
-4 208 15 16 80 7 98 -13z"/>
<path d="M840 1002 c-90 -45 -106 -165 -30 -237 26 -25 40 -30 98 -33 58 -3
72 0 102 20 19 13 40 35 47 48 18 35 16 115 -3 151 -31 60 -143 87 -214 51z
m110 -62 c39 -39 17 -150 -30 -150 -33 0 -50 28 -50 81 0 48 23 89 50 89 6 0
19 -9 30 -20z"/>
<path d="M1106 997 c-19 -16 -26 -28 -21 -37 4 -7 9 -58 11 -113 1 -54 7 -104
12 -109 5 -5 27 -8 48 -6 l39 3 3 94 c3 97 11 121 42 121 25 0 30 -20 30 -114
0 -50 5 -87 12 -94 19 -19 82 -15 101 6 21 23 22 42 2 42 -12 0 -15 17 -15 94
0 90 -1 96 -26 115 -30 23 -65 26 -113 10 -24 -9 -35 -9 -44 0 -18 18 -50 13
-81 -12z"/>
<path d="M1473 1005 c-25 -11 -33 -20 -33 -39 0 -25 2 -26 60 -23 33 1 60 -2
62 -8 2 -5 -21 -18 -51 -27 -73 -24 -101 -51 -101 -99 0 -29 6 -42 26 -58 30
-23 101 -29 136 -10 14 8 23 8 31 0 19 -19 62 -12 86 13 l23 24 -21 11 c-18
10 -21 21 -21 82 0 42 -6 81 -15 98 -24 48 -114 66 -182 36z m92 -176 c0 -29
-3 -34 -24 -34 -13 0 -29 8 -35 18 -9 15 -7 22 13 38 32 26 46 20 46 -22z"/>
<path d="M318 703 c-31 -5 -35 -18 -13 -47 12 -15 15 -53 15 -167 0 -122 3
-149 16 -160 9 -8 52 -15 104 -17 76 -4 95 -1 133 17 81 39 98 125 36 174
l-30 23 26 24 c44 41 31 106 -28 137 -32 16 -198 27 -259 16z m190 -75 c31
-31 -10 -83 -56 -71 -17 4 -22 13 -22 37 0 18 3 36 7 39 11 11 58 8 71 -5z
m13 -167 c20 -16 22 -22 11 -45 -23 -51 -102 -42 -102 12 0 52 47 69 91 33z"/>
<path d="M1390 685 c-13 -14 -38 -29 -54 -33 -39 -10 -47 -45 -16 -74 19 -18
21 -29 19 -116 -2 -88 0 -97 21 -114 29 -23 57 -23 98 2 36 22 43 50 12 50
-19 0 -20 7 -20 90 0 81 2 90 19 90 39 0 61 63 24 68 -13 2 -23 11 -24 20 0
14 -2 13 -9 -3 -7 -18 -8 -16 -11 10 -5 39 -28 43 -59 10z"/>
<path d="M742 633 c-57 -28 -77 -67 -79 -157 -1 -43 0 -76 3 -73 3 2 17 -8 33
-23 70 -71 251 -60 251 15 0 33 -11 37 -64 23 -35 -9 -50 -9 -72 1 -33 15 -24
24 38 41 81 22 121 75 99 133 -20 53 -138 75 -209 40z m102 -59 c9 -23 -28
-69 -46 -58 -4 3 -8 0 -8 -6 0 -6 -4 -9 -10 -5 -10 6 3 49 22 72 14 18 35 16
42 -3z"/>
<path d="M1001 629 c-27 -16 -32 -24 -26 -42 5 -12 10 -72 12 -133 l5 -112 29
-6 c16 -3 40 -1 54 4 24 9 25 12 25 115 0 103 0 105 24 111 14 3 30 3 35 -1 7
-4 11 -46 11 -105 0 -91 2 -100 22 -114 28 -20 51 -20 87 -1 37 19 48 45 21
52 -18 5 -20 14 -20 103 0 78 -3 102 -18 120 -23 29 -87 37 -134 17 -32 -13
-38 -14 -49 -1 -16 19 -38 18 -78 -7z"/>
<path d="M1569 634 c-45 -19 -68 -60 -39 -69 10 -3 37 -1 59 5 30 8 47 8 62
-1 27 -14 17 -23 -51 -43 -75 -21 -105 -54 -104 -113 1 -49 8 -57 67 -73 38
-11 103 -5 113 11 3 5 19 2 36 -7 25 -13 35 -13 59 -3 42 17 55 45 29 59 -17
9 -20 21 -20 81 0 90 -19 135 -64 154 -45 19 -101 18 -147 -1z m99 -180 c4
-50 -46 -75 -68 -34 -8 15 -6 24 10 40 29 29 55 26 58 -6z"/>
<path d="M1463 485 c0 -44 2 -61 4 -37 2 23 2 59 0 80 -2 20 -4 1 -4 -43z"/>
<path d="M619 533 c-13 -16 -12 -17 4 -4 9 7 17 15 17 17 0 8 -8 3 -21 -13z"/>
<path d="M1114 435 c0 -55 1 -76 3 -47 2 29 2 74 0 100 -2 26 -3 2 -3 -53z"/>
</g>
</svg>
