<?xml version="1.0" standalone="no"?>
<!DOCTYPE svg PUBLIC "-//W3C//DTD SVG 20010904//EN"
 "http://www.w3.org/TR/2001/REC-SVG-20010904/DTD/svg10.dtd">
<svg version="1.0" xmlns="http://www.w3.org/2000/svg"
 width="225.000000pt" height="225.000000pt" viewBox="0 0 225.000000 225.000000"
 preserveAspectRatio="xMidYMid meet">

<g transform="translate(0.000000,225.000000) scale(0.100000,-0.100000)"
fill="#000000" stroke="none">
<path d="M802 1354 c-48 -33 -71 -128 -52 -219 15 -71 52 -105 116 -105 87 0
122 37 131 140 7 71 -11 136 -47 172 -23 23 -37 28 -77 28 -28 0 -58 -7 -71
-16z m97 -43 c25 -25 35 -76 29 -146 -10 -114 -93 -130 -112 -22 -10 57 3 146
25 168 24 24 34 24 58 0z"/>
<path d="M260 1200 l0 -160 83 0 c124 0 157 33 157 158 0 134 -27 162 -160
162 l-80 0 0 -160z m154 98 c11 -16 16 -46 16 -98 0 -93 -15 -120 -66 -120
l-34 0 0 120 0 120 34 0 c25 0 39 -7 50 -22z"/>
<path d="M1420 1200 l0 -160 30 0 c29 0 30 2 30 44 0 26 6 48 14 55 12 10 21
2 50 -43 30 -48 40 -56 66 -56 16 0 30 2 30 5 0 3 -20 37 -45 76 l-46 71 41
44 c22 24 40 46 40 49 0 3 -15 5 -33 5 -26 0 -38 -8 -67 -45 -19 -24 -38 -44
-42 -45 -5 0 -8 36 -8 80 l0 80 -30 0 -30 0 0 -160z"/>
<path d="M1297 1319 c4 -15 0 -22 -16 -26 -27 -7 -28 -39 -1 -46 18 -5 20 -14
20 -101 0 -94 1 -97 26 -106 40 -16 64 -12 64 9 0 10 -7 21 -15 25 -12 4 -15
24 -15 91 0 78 2 85 20 85 13 0 20 7 20 20 0 13 -7 20 -20 20 -15 0 -20 7 -20
25 0 22 -4 25 -34 25 -30 0 -33 -3 -29 -21z"/>
<path d="M627 1280 c-30 -24 -37 -25 -37 -5 0 9 -9 15 -25 15 l-25 0 0 -125 0
-125 30 0 30 0 0 80 c0 67 3 83 20 100 11 11 29 20 40 20 16 0 20 7 20 30 0
36 -16 39 -53 10z"/>
<path d="M1083 1288 c-48 -23 -69 -131 -39 -203 18 -41 42 -55 99 -55 50 0 97
29 97 61 0 26 -46 26 -60 -1 -16 -31 -68 -27 -80 6 -20 51 -16 54 70 54 79 0
80 0 80 25 0 38 -25 90 -51 109 -26 18 -83 20 -116 4z m85 -40 c7 -7 12 -22
12 -35 0 -21 -5 -23 -45 -23 -48 0 -51 4 -35 44 10 28 47 35 68 14z"/>
<path d="M1687 1289 c-64 -37 -63 -214 2 -249 11 -5 40 -10 66 -10 35 0 51 6
70 25 34 33 32 55 -4 55 -20 0 -30 -6 -34 -20 -4 -15 -14 -20 -36 -20 -32 0
-51 22 -51 59 0 19 6 21 80 21 89 0 89 0 70 72 -14 50 -52 78 -104 78 -22 0
-49 -5 -59 -11z m91 -41 c7 -7 12 -22 12 -35 0 -21 -5 -23 -45 -23 -48 0 -56
11 -35 51 12 21 50 25 68 7z"/>
<path d="M2000 1293 c-8 -3 -23 -12 -32 -21 -16 -14 -18 -13 -18 1 0 12 -9 17
-30 17 l-30 0 0 -125 0 -125 35 0 35 0 0 83 c0 69 3 87 18 100 10 10 26 17 35
17 12 0 17 9 17 30 0 30 -3 33 -30 23z"/>
<path d="M637 1084 c-4 -4 -7 -16 -7 -26 0 -13 8 -18 31 -18 26 0 30 3 27 23
-3 22 -36 36 -51 21z"/>
</g>
</svg>
