<?xml version="1.0" standalone="no"?>
<!DOCTYPE svg PUBLIC "-//W3C//DTD SVG 20010904//EN"
 "http://www.w3.org/TR/2001/REC-SVG-20010904/DTD/svg10.dtd">
<svg version="1.0" xmlns="http://www.w3.org/2000/svg"
 width="263.000000pt" height="192.000000pt" viewBox="0 0 263.000000 192.000000"
 preserveAspectRatio="xMidYMid meet">

<g transform="translate(0.000000,192.000000) scale(0.100000,-0.100000)"
fill="#000000" stroke="none">
<path d="M317 1280 l-27 -21 0 -295 0 -295 26 -25 c20 -21 31 -25 57 -20 71
13 382 45 547 57 198 13 698 7 880 -11 63 -6 183 -20 265 -30 146 -19 151 -19
175 -1 l25 18 3 289 c1 159 0 299 -3 310 -9 37 -51 47 -130 30 -108 -23 -345
-54 -508 -67 -193 -15 -727 -6 -892 15 -105 14 -268 41 -360 61 -23 5 -37 1
-58 -15z m172 -20 c519 -88 1054 -89 1549 -5 168 29 186 30 206 9 14 -13 16
-55 16 -303 0 -277 -1 -289 -20 -306 -20 -18 -26 -18 -208 3 -310 36 -443 44
-752 44 -310 0 -444 -8 -754 -44 l-188 -22 -19 23 c-18 21 -19 44 -19 300 0
234 2 280 16 299 19 27 27 27 173 2z"/>
<path d="M334 1252 c-11 -11 -14 -69 -14 -290 0 -152 4 -283 9 -291 10 -16 31
-17 136 -2 224 31 395 43 710 48 362 6 528 -2 846 -39 102 -12 193 -19 202
-15 15 6 17 35 17 296 0 254 -2 291 -16 299 -10 5 -51 2 -109 -9 -507 -96
-1070 -99 -1605 -10 -138 23 -165 25 -176 13z m130 -118 c40 -6 47 -10 44 -28
-3 -18 -9 -20 -40 -18 l-38 4 0 -56 0 -56 35 0 c31 0 35 -3 35 -25 0 -22 -4
-25 -35 -25 l-34 0 -3 -82 c-3 -70 -6 -83 -20 -86 -17 -3 -18 11 -18 187 0
154 3 191 14 191 7 0 34 -3 60 -6z m1716 -184 l0 -190 -24 0 c-21 0 -27 8 -41
58 -9 31 -27 91 -40 132 l-23 75 -1 -128 c-1 -98 -4 -128 -13 -125 -10 4 -14
51 -16 182 l-2 177 22 -3 c19 -3 27 -20 59 -128 l38 -125 0 133 c1 125 2 132
21 132 19 0 20 -7 20 -190z m-1610 25 l0 -145 35 0 c28 0 35 -4 35 -19 0 -23
-19 -31 -71 -31 l-39 0 0 170 c0 163 1 170 20 170 19 0 20 -7 20 -145z m1400
-26 c0 -157 -1 -170 -17 -167 -13 2 -30 37 -60 123 l-42 120 0 -117 c-1 -98
-4 -118 -16 -118 -13 0 -15 24 -15 160 0 160 0 160 23 160 20 0 27 -13 59
-107 l36 -108 1 113 c1 92 4 112 16 112 13 0 15 -26 15 -171z m-1192 134 c3
-19 0 -21 -37 -16 l-41 6 0 -47 0 -46 41 0 c36 0 40 -2 37 -22 -2 -19 -10 -24
-41 -26 l-38 -3 3 -47 3 -46 40 0 c28 -1 41 -6 43 -17 3 -19 -24 -29 -80 -29
l-38 0 0 161 0 160 53 -3 c45 -3 52 -6 55 -25z m72 -133 c0 -143 -1 -150 -20
-150 -19 0 -20 7 -20 150 0 143 1 150 20 150 19 0 20 -7 20 -150z m134 144 c9
-3 16 -14 16 -23 0 -12 -9 -16 -37 -16 -32 0 -39 -4 -41 -22 -2 -14 7 -33 25
-50 70 -68 83 -126 37 -162 -40 -31 -104 -26 -104 8 0 12 10 16 42 16 40 0 43
2 46 30 2 24 -5 38 -38 70 -34 33 -40 45 -40 81 0 58 42 88 94 68z m750 -11
c15 -52 65 -287 62 -291 -11 -10 -46 21 -46 41 0 35 -15 49 -46 45 -24 -2 -30
-9 -37 -40 -7 -28 -14 -38 -29 -38 -14 0 -18 5 -14 18 3 9 17 69 31 132 36
155 34 150 55 150 10 0 21 -8 24 -17z m-566 -15 c3 -15 -2 -17 -25 -12 -47 9
-68 -24 -68 -106 0 -82 21 -115 68 -106 23 5 28 3 25 -12 -5 -24 -74 -29 -99
-7 -51 47 -41 236 13 259 28 11 83 1 86 -16z m72 -38 c5 -53 6 -55 35 -55 29
1 30 2 33 58 3 49 6 57 22 57 19 0 20 -8 20 -140 0 -133 -1 -140 -20 -140 -18
0 -20 7 -20 60 l0 60 -35 0 -35 0 0 -60 c0 -57 -1 -60 -25 -60 l-25 0 0 133
c0 74 3 137 7 141 4 4 14 5 23 4 10 -2 16 -19 20 -58z m225 -47 l29 -108 26
105 c24 99 28 105 53 108 l27 3 0 -146 c0 -134 -1 -146 -17 -143 -16 3 -18 16
-16 107 1 57 0 101 -3 98 -3 -3 -12 -31 -20 -64 -9 -32 -20 -75 -25 -95 -7
-26 -15 -38 -27 -38 -14 0 -23 21 -44 103 l-26 102 -1 -102 c-1 -84 -4 -103
-16 -103 -13 0 -15 22 -15 140 l0 140 23 0 c22 0 26 -9 52 -107z"/>
<path d="M1693 976 c-9 -55 -9 -56 15 -56 22 0 23 2 17 43 -12 69 -21 72 -32
13z"/>
<path d="M2297 659 c4 -13 8 -18 11 -10 2 7 -1 18 -6 23 -8 8 -9 4 -5 -13z"/>
<path d="M2321 654 c0 -11 3 -14 6 -6 3 7 2 16 -1 19 -3 4 -6 -2 -5 -13z"/>
</g>
</svg>
