<?xml version="1.0" standalone="no"?>
<!DOCTYPE svg PUBLIC "-//W3C//DTD SVG 20010904//EN"
 "http://www.w3.org/TR/2001/REC-SVG-20010904/DTD/svg10.dtd">
<svg version="1.0" xmlns="http://www.w3.org/2000/svg"
 width="300.000000pt" height="168.000000pt" viewBox="0 0 300.000000 168.000000"
 preserveAspectRatio="xMidYMid meet">

<g transform="translate(0.000000,168.000000) scale(0.100000,-0.100000)"
fill="#000000" stroke="none">
<path d="M2219 1063 c-36 -37 -60 -76 -73 -121 -6 -17 5 -10 41 26 27 27 66
55 87 62 32 10 37 16 34 38 -5 44 -45 41 -89 -5z"/>
<path d="M515 1058 c-44 -24 -45 -30 -45 -310 l0 -269 25 -24 c16 -17 35 -25
60 -25 25 0 44 8 60 25 l25 24 0 265 c0 145 -3 272 -6 281 -7 19 -55 45 -81
45 -10 0 -27 -6 -38 -12z"/>
<path d="M755 1045 c-21 -20 -25 -34 -25 -85 0 -51 -3 -60 -18 -60 -27 0 -42
-20 -42 -58 0 -28 5 -35 30 -43 l30 -11 0 -154 c0 -193 1 -194 120 -194 86 0
100 9 100 63 0 24 -27 57 -48 57 -22 0 -32 40 -32 134 0 96 0 96 25 96 26 0
65 31 65 53 0 24 -30 56 -58 59 -26 3 -27 6 -30 65 -3 53 -7 65 -29 83 -34 26
-59 25 -88 -5z"/>
<path d="M1486 1049 l-26 -20 0 -280 c0 -266 1 -280 20 -299 11 -11 33 -20 50
-20 17 0 39 9 50 20 19 19 20 33 20 299 l0 280 -26 20 c-15 12 -34 21 -44 21
-10 0 -29 -9 -44 -21z"/>
<path d="M2460 945 c-13 -16 -5 -55 12 -55 6 0 6 6 -2 15 -17 21 -5 45 22 45
21 -1 22 -2 6 -14 -10 -7 -15 -16 -11 -19 3 -4 12 1 19 11 11 14 13 15 14 2 0
-9 -6 -22 -12 -29 -11 -11 -10 -13 2 -9 20 6 25 35 10 53 -16 19 -44 19 -60 0z"/>
<path d="M1127 896 c-60 -13 -117 -55 -117 -86 0 -47 80 -66 129 -31 58 42
121 35 121 -14 0 -31 -22 -43 -116 -60 -128 -25 -168 -59 -168 -145 0 -116
114 -171 235 -112 54 26 65 27 73 7 4 -11 22 -15 68 -15 l63 0 -3 183 c-4 200
-11 226 -67 258 -41 24 -147 31 -218 15z m137 -296 c-1 -34 -7 -48 -28 -67
-32 -27 -53 -29 -84 -7 -26 18 -29 56 -6 75 22 18 96 49 109 45 6 -2 10 -22 9
-46z"/>
<path d="M1797 900 c-99 -18 -155 -82 -109 -123 26 -24 65 -21 123 10 62 32
102 25 107 -19 4 -34 -15 -45 -115 -64 -90 -17 -120 -30 -145 -65 -44 -58 -27
-147 35 -193 38 -28 119 -27 175 2 50 26 68 28 76 7 4 -11 22 -15 68 -15 l63
0 -3 183 c-4 204 -11 229 -72 259 -43 21 -139 29 -203 18z m131 -279 c8 -50
-38 -111 -82 -111 -47 0 -74 63 -40 91 21 18 96 49 109 45 6 -1 11 -13 13 -25z"/>
<path d="M2265 901 c-88 -22 -137 -77 -156 -175 -24 -117 20 -234 104 -278 58
-30 165 -31 224 0 46 24 83 65 83 93 0 55 -82 66 -137 19 -41 -37 -72 -38
-104 -4 -21 23 -24 35 -24 109 0 74 3 86 24 109 32 34 63 33 104 -4 55 -48
137 -36 137 20 0 28 -45 76 -87 93 -49 19 -130 28 -168 18z"/>
</g>
</svg>
