<?xml version="1.0" standalone="no"?>
<!DOCTYPE svg PUBLIC "-//W3C//DTD SVG 20010904//EN"
 "http://www.w3.org/TR/2001/REC-SVG-20010904/DTD/svg10.dtd">
<svg version="1.0" xmlns="http://www.w3.org/2000/svg"
 width="186.000000pt" height="148.000000pt" viewBox="0 0 186.000000 148.000000"
 preserveAspectRatio="xMidYMid meet">

<g transform="translate(0.000000,148.000000) scale(0.100000,-0.100000)"
fill="#000000" stroke="none">
<path d="M242 1318 c-16 -16 -15 -53 2 -68 8 -6 16 -21 18 -32 2 -12 11 -25
21 -29 9 -5 25 -13 34 -17 28 -14 26 -31 -4 -37 -39 -9 -56 -19 -68 -42 -6
-11 -18 -27 -28 -37 -21 -21 -21 -35 -1 -64 17 -25 56 -29 74 -8 6 8 24 16 38
18 16 2 31 12 36 24 5 11 19 25 30 30 12 5 22 18 24 29 3 18 2 18 -13 -2 -9
-13 -21 -23 -27 -23 -5 0 -19 -11 -30 -25 -11 -14 -26 -25 -34 -25 -8 0 -23
-6 -34 -12 -37 -23 -82 31 -48 56 8 6 20 21 27 33 6 13 24 26 39 29 15 3 38
11 52 17 l26 10 -23 24 c-13 12 -30 23 -37 23 -21 0 -66 65 -66 94 0 23 29 34
71 26 40 -8 79 -34 79 -54 0 -6 10 -16 22 -21 13 -6 27 -25 33 -46 15 -53 33
-71 69 -67 21 2 34 10 41 26 5 12 17 22 25 22 23 0 40 20 40 46 0 13 5 26 10
29 14 9 13 58 -2 73 -17 17 -63 15 -78 -3 -7 -8 -21 -15 -31 -15 -22 0 -52
-41 -44 -62 3 -8 -1 -21 -10 -28 -12 -10 -15 -10 -15 2 0 7 -12 25 -27 39 -16
15 -35 36 -43 47 -19 25 -128 40 -148 20z m377 -17 c17 -17 18 -23 7 -54 -13
-40 -86 -117 -109 -117 -19 0 -47 27 -47 45 0 7 7 20 15 29 8 8 15 26 15 41 0
20 8 29 34 40 19 8 37 19 41 25 9 15 23 12 44 -9z"/>
<path d="M555 1243 c-11 -15 -24 -34 -29 -42 -16 -26 21 7 45 41 26 36 11 37
-16 1z"/>
<path d="M746 1253 c-14 -15 -30 -39 -36 -53 -6 -14 -24 -34 -40 -43 -16 -10
-55 -41 -86 -70 l-57 -52 -41 48 c-23 26 -46 47 -51 47 -5 0 13 -22 40 -50 27
-27 47 -52 44 -54 -2 -2 -31 -9 -64 -15 l-60 -10 53 4 c76 6 66 -25 -13 -40
-72 -13 -89 -27 -103 -90 -11 -44 -11 -60 -2 -69 9 -8 11 -6 5 12 -7 25 7 29
26 6 29 -35 129 -62 129 -34 0 6 -15 10 -34 10 -37 0 -96 41 -96 66 0 18 4 18
42 -2 27 -14 37 -14 70 -3 35 11 44 10 88 -8 28 -12 52 -18 54 -14 3 4 -22 17
-54 30 -48 19 -64 22 -89 13 -58 -20 -126 25 -85 55 10 7 31 13 47 13 25 0 28
-2 17 -15 -7 -9 -10 -18 -8 -21 3 -3 22 18 42 45 42 57 159 168 194 184 13 6
32 27 42 46 39 76 81 98 124 66 30 -23 27 -42 -8 -64 -18 -11 -39 -32 -46 -47
-8 -14 -25 -30 -38 -35 -12 -5 -30 -21 -39 -36 -14 -25 -120 -107 -181 -141
-13 -8 -21 -16 -19 -19 10 -10 189 119 205 148 10 16 27 32 39 35 29 8 85 -16
73 -31 -5 -6 -5 -17 -1 -24 6 -9 11 -10 15 -2 4 6 1 11 -6 11 -9 1 -8 5 4 13
15 12 13 15 -18 32 -19 10 -34 24 -34 31 0 15 52 60 80 69 15 5 19 12 15 26
-4 12 -2 19 6 19 7 0 -4 9 -26 20 -54 28 -89 26 -119 -7z"/>
<path d="M991 1263 c-25 -22 -74 -113 -61 -113 6 0 20 21 33 47 25 53 61 79
98 70 33 -9 259 -225 302 -289 43 -65 140 -258 134 -265 -11 -10 -48 20 -128
104 -62 67 -75 77 -51 42 17 -25 56 -69 86 -96 43 -39 54 -55 49 -72 -5 -21
-3 -21 141 -21 l147 0 -3 33 c-3 36 8 34 -139 22 l-86 -7 -15 38 c-9 22 -44
88 -77 148 -41 74 -58 113 -51 120 9 9 65 1 138 -20 19 -5 22 -3 22 20 0 19
-7 29 -25 36 -40 15 -29 28 30 35 55 7 55 8 55 42 0 30 -2 33 -19 23 -45 -24
-83 -4 -41 22 18 11 18 14 3 30 -16 18 -43 24 -43 10 0 -12 -58 -72 -69 -72
-16 0 -13 43 5 68 19 27 18 29 -19 34 -25 3 -30 -2 -41 -33 -17 -48 -52 -96
-76 -104 -16 -5 -42 13 -115 79 -80 72 -100 86 -129 86 -19 0 -43 -8 -55 -17z
m429 -27 c0 -2 -7 -20 -15 -40 -28 -66 13 -78 64 -20 21 24 37 34 48 30 14 -6
14 -8 -1 -24 -28 -32 -20 -45 24 -39 35 4 40 2 40 -14 0 -13 -7 -19 -24 -19
-38 0 -141 -35 -176 -60 l-32 -23 -31 31 -30 31 32 30 c17 16 41 50 52 75 11
25 26 46 34 46 8 0 15 -2 15 -4z m64 -181 c20 -8 36 -20 36 -25 0 -13 -7 -13
-71 1 -48 11 -51 13 -34 25 23 17 25 17 69 -1z"/>
<path d="M310 1262 c0 -5 18 -23 40 -41 22 -17 40 -28 40 -23 0 5 -18 23 -40
41 -22 17 -40 28 -40 23z"/>
<path d="M800 1240 c0 -5 5 -10 11 -10 5 0 7 5 4 10 -3 6 -8 10 -11 10 -2 0
-4 -4 -4 -10z"/>
<path d="M1010 1210 c0 -5 7 -10 16 -10 8 0 12 5 9 10 -3 6 -10 10 -16 10 -5
0 -9 -4 -9 -10z"/>
<path d="M953 1153 c-3 -10 -8 -21 -10 -25 -2 -5 3 -8 12 -8 11 0 15 5 12 14
-3 7 0 19 6 25 8 8 8 11 -1 11 -7 0 -15 -8 -19 -17z"/>
<path d="M1008 1128 c26 -9 34 -19 42 -52 6 -23 16 -54 22 -69 6 -15 9 -29 7
-30 -2 -1 -74 0 -159 3 l-155 5 28 19 c32 21 30 33 -3 16 -27 -15 -80 -98 -79
-124 0 -15 4 -12 12 11 21 57 25 58 183 56 80 0 156 -4 169 -7 30 -8 87 -88
79 -110 -9 -25 -20 -19 -51 24 -41 58 -74 65 -86 18 -6 -22 -6 -22 13 2 16 22
20 23 25 8 4 -9 3 -23 -1 -30 -6 -11 -5 -11 8 0 14 11 21 5 53 -48 20 -33 41
-60 46 -60 6 0 22 12 36 26 29 30 57 27 99 -9 l26 -23 -1 -233 -2 -232 38 3
38 3 5 198 c5 200 2 237 -22 237 -18 0 -117 103 -159 165 -18 28 -48 77 -66
110 -18 33 -33 53 -33 45 0 -19 69 -138 110 -190 34 -43 38 -55 13 -41 -14 7
-24 4 -45 -16 -40 -38 -62 -15 -35 37 12 22 11 29 -13 60 -36 47 -76 127 -84
170 -9 49 -17 59 -56 65 l-35 5 33 -12z"/>
<path d="M305 1064 c-16 -14 -21 -21 -10 -15 30 14 61 40 50 41 -5 0 -23 -12
-40 -26z"/>
<path d="M765 1060 c3 -5 8 -10 11 -10 2 0 4 5 4 10 0 6 -5 10 -11 10 -5 0 -7
-4 -4 -10z"/>
<path d="M666 928 l-17 -33 20 24 c18 20 27 41 18 41 -1 0 -11 -15 -21 -32z"/>
<path d="M780 930 c0 -6 40 -10 100 -10 60 0 100 4 100 10 0 6 -40 10 -100 10
-60 0 -100 -4 -100 -10z"/>
<path d="M977 854 c-4 -4 -47 -7 -96 -8 -73 -1 -94 -5 -108 -19 -17 -17 -17
-18 10 -8 16 6 63 11 106 11 52 0 83 5 97 15 10 8 14 15 8 15 -6 0 -14 -3 -17
-6z"/>
<path d="M490 830 c-12 -8 -9 -10 12 -10 79 0 74 -46 -7 -63 -18 -4 -17 -5 3
-6 12 0 40 8 62 19 47 24 66 25 115 4 33 -13 48 -14 102 -4 34 7 63 16 63 20
0 5 -15 4 -32 -1 -37 -10 -99 -12 -122 -3 -24 9 -19 33 7 38 12 3 31 7 42 9
11 3 1 5 -21 6 -26 1 -46 -5 -54 -14 -16 -19 -77 -19 -110 0 -30 17 -40 18
-60 5z"/>
<path d="M990 815 c-8 -9 -30 -15 -56 -15 -24 0 -44 -4 -44 -10 0 -18 81 -11
116 11 22 13 42 18 56 14 18 -5 20 -4 8 4 -22 16 -66 13 -80 -4z"/>
<path d="M72 513 l3 -218 35 0 35 0 5 150 5 150 44 -80 c24 -44 57 -105 74
-135 46 -84 54 -91 106 -88 l46 3 3 188 2 187 321 0 320 0 -3 28 -3 27 -335 3
c-184 1 -345 0 -357 -3 -22 -5 -23 -10 -25 -151 l-3 -146 -74 133 c-40 74 -81
142 -89 152 -10 12 -30 17 -64 17 l-48 0 2 -217z"/>
<path d="M1137 723 c-4 -3 -7 -30 -7 -60 0 -40 -4 -53 -15 -53 -10 0 -15 -10
-15 -30 0 -19 5 -30 14 -30 11 0 15 -22 18 -100 3 -93 5 -101 30 -127 22 -21
37 -27 75 -27 45 -1 48 1 48 24 0 17 -6 26 -20 28 -45 9 -55 30 -55 118 l0 83
38 3 c32 3 37 7 40 31 3 26 1 27 -37 27 l-41 0 0 60 0 60 -33 0 c-19 0 -37 -3
-40 -7z"/>
<path d="M566 610 c-61 -19 -97 -75 -98 -154 -1 -59 19 -104 58 -135 29 -23
94 -44 115 -37 8 2 26 7 41 10 36 8 88 53 88 77 0 26 -56 25 -90 -1 -14 -11
-37 -20 -51 -20 -33 0 -79 35 -79 61 0 18 8 19 116 19 l116 0 -4 55 c-4 44
-11 62 -33 85 -43 45 -112 60 -179 40z m108 -71 c47 -37 35 -49 -49 -49 -58 0
-75 3 -75 14 0 20 48 56 75 56 12 0 34 -9 49 -21z"/>
<path d="M883 609 c-38 -11 -73 -52 -73 -86 0 -40 47 -77 123 -98 38 -10 71
-25 74 -32 16 -42 -75 -60 -115 -22 -30 28 -89 24 -84 -6 6 -33 33 -55 89 -71
48 -14 58 -14 107 0 59 17 86 47 86 93 0 48 -25 71 -103 94 -88 26 -100 34
-86 60 13 26 69 25 102 -1 33 -26 77 -27 77 -2 0 58 -107 97 -197 71z"/>
<path d="M1531 608 c-106 -39 -133 -194 -50 -278 44 -43 97 -55 163 -36 55 16
79 36 90 74 7 20 4 22 -29 22 -22 0 -47 -8 -62 -20 -29 -22 -70 -26 -94 -7
-15 11 -39 49 -39 61 0 3 54 6 120 6 l120 0 0 35 c0 45 -31 107 -65 129 -34
22 -111 29 -154 14z m122 -79 c9 -12 17 -25 17 -30 0 -5 -36 -9 -80 -9 l-80 0
11 24 c22 49 97 57 132 15z"/>
<path d="M1762 348 c-17 -17 -15 -33 5 -49 15 -13 15 -12 3 8 -11 18 -12 24
-1 37 16 19 10 21 -7 4z"/>
<path d="M1790 330 c-9 -6 -10 -10 -3 -10 6 0 15 5 18 10 8 12 4 12 -15 0z"/>
<path d="M1821 324 c0 -11 3 -14 6 -6 3 7 2 16 -1 19 -3 4 -6 -2 -5 -13z"/>
</g>
</svg>
