<?xml version="1.0" standalone="no"?>
<!DOCTYPE svg PUBLIC "-//W3C//DTD SVG 20010904//EN"
 "http://www.w3.org/TR/2001/REC-SVG-20010904/DTD/svg10.dtd">
<svg version="1.0" xmlns="http://www.w3.org/2000/svg"
 width="225.000000pt" height="225.000000pt" viewBox="0 0 225.000000 225.000000"
 preserveAspectRatio="xMidYMid meet">

<g transform="translate(0.000000,225.000000) scale(0.100000,-0.100000)"
fill="#000000" stroke="none">
<path d="M275 1407 c-3 -7 -4 -138 -3 -292 l3 -280 850 0 850 0 0 290 0 290
-848 3 c-677 2 -849 0 -852 -11z m286 -87 c33 -15 49 -49 49 -101 0 -32 -7
-47 -30 -70 l-29 -30 35 -60 c20 -33 42 -63 50 -66 8 -3 14 -14 14 -24 0 -16
-8 -19 -45 -19 l-45 0 -40 80 c-22 44 -45 80 -50 80 -17 0 -12 -110 5 -116 8
-4 15 -15 15 -25 0 -17 -8 -19 -75 -19 -67 0 -75 2 -75 19 0 11 9 23 20 26 19
6 20 15 20 144 0 131 -1 139 -22 153 -15 10 -19 20 -15 32 7 16 18 18 100 14
50 -3 104 -11 118 -18z m999 -40 l0 -40 40 0 c45 0 44 1 30 -35 -8 -21 -16
-26 -38 -23 l-27 3 0 -85 0 -85 32 3 c28 2 34 -2 39 -24 8 -33 -4 -44 -54 -51
-34 -5 -44 -1 -66 20 -25 25 -26 32 -26 127 0 75 -3 99 -12 98 -8 -2 -14 9
-16 25 -2 19 1 27 12 27 11 0 16 10 16 33 0 41 5 47 42 47 26 0 28 -3 28 -40z
m-717 -50 c27 -21 47 -74 47 -122 l0 -28 -80 0 c-78 0 -80 -1 -80 -24 0 -38
23 -50 85 -42 32 3 55 2 55 -3 0 -5 3 -17 6 -25 7 -19 -49 -46 -96 -46 -79 0
-124 58 -124 156 0 67 26 122 66 142 38 18 93 14 121 -8z m297 0 c17 -17 20
-33 20 -120 0 -89 2 -101 20 -112 11 -7 20 -21 20 -30 0 -15 -9 -18 -55 -18
l-55 0 0 109 c0 123 -9 144 -55 123 -24 -11 -25 -16 -25 -92 0 -69 3 -82 20
-92 11 -7 20 -21 20 -30 0 -16 -10 -18 -75 -18 -65 0 -75 2 -75 18 0 9 9 23
20 30 17 11 20 23 20 96 0 70 -3 86 -20 101 -34 31 -25 45 29 45 29 0 51 -5
53 -12 3 -8 11 -7 28 5 33 23 85 22 110 -3z m235 14 c30 -12 45 -60 45 -145 0
-70 3 -86 21 -105 12 -12 18 -27 14 -33 -8 -14 -82 -14 -90 -1 -4 7 -14 5 -28
-5 -71 -50 -161 33 -127 116 15 36 56 59 105 59 36 0 42 10 29 44 -7 18 -40
21 -79 6 -23 -9 -27 -7 -35 16 -6 14 -10 27 -10 30 0 18 118 32 155 18z m467
-14 c24 -18 26 -27 30 -121 3 -82 7 -103 21 -110 9 -6 17 -19 17 -29 0 -17 -7
-20 -45 -20 -25 0 -45 5 -45 10 0 6 -13 4 -30 -5 -35 -18 -51 -19 -83 -4 -41
19 -60 86 -37 130 14 25 62 49 100 49 28 0 31 3 28 28 -3 26 -5 27 -53 25 -48
-2 -65 7 -65 35 0 34 123 44 162 12z"/>
<path d="M460 1221 c0 -47 2 -51 24 -51 32 0 48 22 44 62 -3 29 -7 33 -35 36
l-33 3 0 -50z"/>
<path d="M742 1178 c-7 -7 -12 -20 -12 -30 0 -14 8 -18 40 -18 41 0 47 9 34
44 -7 19 -45 21 -62 4z"/>
<path d="M1285 1064 c-19 -20 -16 -43 8 -58 25 -16 51 4 55 43 3 27 0 31 -22
31 -13 0 -32 -7 -41 -16z"/>
<path d="M1740 1065 c-7 -9 -10 -25 -6 -41 5 -20 12 -25 34 -22 23 3 27 8 30
41 3 33 1 37 -21 37 -14 0 -30 -7 -37 -15z"/>
</g>
</svg>
