<?xml version="1.0" standalone="no"?>
<!DOCTYPE svg PUBLIC "-//W3C//DTD SVG 20010904//EN"
 "http://www.w3.org/TR/2001/REC-SVG-20010904/DTD/svg10.dtd">
<svg version="1.0" xmlns="http://www.w3.org/2000/svg"
 width="225.000000pt" height="225.000000pt" viewBox="0 0 225.000000 225.000000"
 preserveAspectRatio="xMidYMid meet">

<g transform="translate(0.000000,225.000000) scale(0.100000,-0.100000)"
fill="#000000" stroke="none">
<path d="M685 1746 c-75 -19 -121 -41 -189 -90 -188 -134 -248 -336 -156 -522
25 -52 57 -88 170 -196 161 -152 186 -192 157 -253 -40 -84 -178 -96 -252 -22
-18 18 -43 61 -55 95 -28 78 -55 100 -97 80 -40 -19 -65 -73 -58 -123 19 -129
177 -223 360 -213 224 12 336 179 246 369 -12 24 -48 78 -81 119 -160 200
-187 363 -80 470 41 41 124 73 177 69 63 -5 83 16 83 88 0 101 -104 161 -225
129z m0 -206 c-3 -5 -11 -10 -16 -10 -6 0 -7 5 -4 10 3 6 11 10 16 10 6 0 7
-4 4 -10z"/>
<path d="M1536 1752 c-14 -24 -28 -337 -23 -522 13 -416 45 -487 222 -484 97
2 236 42 260 77 8 12 15 39 15 60 0 96 -71 140 -129 78 -36 -38 -90 -71 -118
-71 -13 0 -30 11 -40 27 -25 37 -29 265 -10 526 18 246 13 277 -49 303 -36 15
-120 19 -128 6z m121 -454 c-3 -8 -6 -5 -6 6 -1 11 2 17 5 13 3 -3 4 -12 1
-19z"/>
<path d="M1053 1476 c-193 -61 -293 -293 -209 -481 85 -189 308 -242 468 -112
113 92 157 254 108 401 -51 154 -215 239 -367 192z m188 -143 c41 -35 59 -79
59 -148 0 -94 -47 -173 -116 -195 -98 -33 -183 86 -154 217 29 128 134 191
211 126z m-241 -43 c0 -5 -5 -10 -11 -10 -5 0 -7 5 -4 10 3 6 8 10 11 10 2 0
4 -4 4 -10z m373 -255 c-3 -9 -8 -14 -10 -11 -3 3 -2 9 2 15 9 16 15 13 8 -4z"/>
</g>
</svg>
