<?xml version="1.0" standalone="no"?>
<!DOCTYPE svg PUBLIC "-//W3C//DTD SVG 20010904//EN"
 "http://www.w3.org/TR/2001/REC-SVG-20010904/DTD/svg10.dtd">
<svg version="1.0" xmlns="http://www.w3.org/2000/svg"
 width="1024.000000pt" height="1536.000000pt" viewBox="0 0 1024.000000 1536.000000"
 preserveAspectRatio="xMidYMid meet">

<g transform="translate(0.000000,1536.000000) scale(0.100000,-0.100000)"
fill="#000000" stroke="none">
<path d="M4830 11083 c-19 -1 -93 -8 -165 -14 -346 -28 -765 -116 -1130 -236
-413 -136 -894 -394 -1210 -649 -118 -95 -365 -345 -460 -464 -159 -201 -229
-318 -345 -585 -84 -194 -118 -308 -162 -546 -22 -119 -23 -145 -23 -614 1
-428 3 -498 18 -552 52 -193 195 -341 372 -387 77 -21 233 -21 310 -1 162 42
287 146 367 301 55 107 56 111 67 289 10 158 43 282 87 335 39 45 103 86 175
110 116 40 291 15 381 -54 51 -39 110 -123 142 -200 21 -50 21 -67 26 -861 l5
-810 32 -85 c46 -122 78 -177 147 -245 65 -64 189 -143 270 -169 174 -58 355
-39 526 56 129 71 230 195 297 363 l28 70 6 745 c6 827 3 790 75 939 180 368
746 358 925 -16 59 -123 57 -92 62 -1388 l4 -1190 22 -75 c32 -108 85 -201
159 -281 210 -227 491 -281 768 -147 99 47 235 184 291 293 73 142 67 27 73
1475 l5 1315 32 67 c130 275 497 306 684 58 56 -75 79 -158 79 -289 0 -143 15
-224 52 -291 123 -220 252 -312 453 -327 269 -19 471 82 573 286 22 44 46 105
52 136 8 39 10 203 7 563 -4 467 -6 516 -26 621 -87 465 -289 859 -639 1246
-169 188 -443 414 -684 565 -257 160 -655 336 -983 433 -512 152 -966 219
-1470 215 -132 -1 -256 -3 -275 -5z m621 -333 c410 -32 803 -111 1164 -233
284 -97 456 -173 681 -303 411 -236 774 -571 974 -899 64 -104 154 -289 188
-386 43 -120 98 -346 114 -464 18 -136 19 -891 1 -951 -21 -69 -53 -107 -117
-138 -107 -54 -212 -46 -286 20 -58 52 -76 109 -84 254 -10 172 -28 259 -76
354 -74 151 -188 263 -346 341 -101 50 -195 68 -324 62 -190 -9 -354 -80 -480
-207 -84 -85 -129 -154 -168 -262 l-27 -73 -5 -1300 c-6 -1371 -4 -1325 -50
-1416 -30 -57 -131 -144 -192 -165 -77 -25 -165 -21 -234 10 -90 41 -129 79
-171 164 l-38 76 -6 1230 c-6 1330 -3 1265 -58 1422 -68 191 -271 388 -484
468 -114 43 -219 59 -342 53 -139 -8 -214 -27 -340 -87 -220 -104 -358 -257
-415 -460 -44 -157 -49 -249 -51 -915 -1 -347 -5 -665 -10 -708 -10 -102 -43
-171 -114 -235 -43 -40 -66 -52 -119 -66 -87 -21 -133 -20 -212 6 -83 27 -162
95 -192 166 -39 90 -42 152 -42 920 0 635 -2 754 -16 819 -51 249 -247 452
-514 534 -97 30 -271 32 -369 5 -197 -54 -361 -186 -455 -365 -51 -99 -67
-162 -76 -317 -12 -193 -41 -265 -131 -326 -22 -15 -64 -32 -94 -39 -97 -22
-196 29 -248 126 -21 39 -22 51 -25 485 -3 483 2 559 54 758 43 165 72 241
154 407 277 555 758 984 1441 1285 405 179 910 301 1425 344 198 17 536 19
715 6z"/>
<path d="M4347 10078 c-47 -28 -77 -87 -77 -155 0 -109 97 -181 215 -159 47 9
99 56 120 108 30 75 0 167 -67 208 -47 28 -140 27 -191 -2z"/>
<path d="M7005 9631 c-75 -19 -116 -72 -117 -154 -1 -109 68 -177 181 -177 89
0 161 73 161 162 0 57 -17 96 -60 131 -47 40 -103 53 -165 38z"/>
<path d="M3065 9506 c-16 -8 -42 -26 -57 -42 -104 -112 -30 -286 122 -286 175
0 229 232 75 319 -45 26 -96 29 -140 9z"/>
<path d="M5670 9433 c-67 -35 -103 -121 -81 -194 33 -110 144 -158 248 -108
61 30 93 80 93 147 0 64 -18 102 -66 139 -47 36 -141 44 -194 16z"/>
<path d="M3885 5258 c-66 -24 -99 -63 -284 -341 -155 -230 -191 -307 -217
-460 -14 -84 -14 -102 0 -183 34 -197 167 -361 355 -436 49 -20 74 -23 207
-23 l151 0 87 43 c96 48 195 133 245 210 86 135 98 329 32 511 -55 152 -400
658 -460 675 -42 13 -89 14 -116 4z m138 -550 c41 -62 93 -147 114 -188 36
-71 38 -80 38 -171 0 -89 -2 -98 -29 -137 -20 -30 -48 -51 -92 -73 -57 -28
-71 -31 -129 -27 -134 11 -235 111 -235 233 0 88 49 201 155 360 80 119 85
126 94 120 4 -2 42 -55 84 -117z"/>
</g>
</svg>
