<?xml version="1.0" standalone="no"?>
<!DOCTYPE svg PUBLIC "-//W3C//DTD SVG 20010904//EN"
 "http://www.w3.org/TR/2001/REC-SVG-20010904/DTD/svg10.dtd">
<svg version="1.0" xmlns="http://www.w3.org/2000/svg"
 width="1024.000000pt" height="1536.000000pt" viewBox="0 0 1024.000000 1536.000000"
 preserveAspectRatio="xMidYMid meet">

<g transform="translate(0.000000,1536.000000) scale(0.100000,-0.100000)"
fill="#000000" stroke="none">
<path d="M8070 12106 c-63 -18 -135 -56 -205 -109 -33 -24 -463 -445 -955
-934 l-895 -890 -90 18 c-229 47 -488 8 -791 -121 -313 -132 -618 -343 -869
-601 -228 -235 -382 -465 -486 -726 -17 -43 -32 -79 -33 -80 -2 -2 -140 -17
-307 -33 -596 -60 -1086 -156 -1520 -300 -297 -98 -497 -206 -630 -341 -81
-81 -121 -159 -145 -283 -16 -81 -17 -110 -6 -310 14 -242 29 -378 67 -591
117 -647 364 -1220 752 -1746 155 -209 356 -422 538 -568 80 -65 340 -240 387
-262 l25 -11 -1 -182 c-1 -169 1 -185 23 -241 48 -119 130 -217 256 -301 285
-192 603 -280 1282 -354 320 -35 493 -43 785 -36 326 7 452 17 686 56 835 140
1239 337 1354 658 28 80 34 229 14 361 -9 58 -16 110 -16 116 0 7 42 42 94 78
594 418 1028 961 1316 1645 188 449 320 1084 320 1547 0 214 -38 313 -170 439
-89 85 -170 135 -348 216 -301 138 -729 252 -1327 355 -168 29 -522 75 -573
75 -19 0 -32 3 -30 8 2 4 29 59 61 122 92 185 135 408 109 565 l-10 60 939
940 c516 517 951 957 965 978 107 158 118 336 34 506 -64 126 -167 216 -301
262 -79 27 -232 35 -299 15z m230 -320 c86 -42 130 -149 100 -240 -9 -28 -219
-244 -900 -926 -488 -489 -890 -890 -893 -890 -2 0 -27 30 -55 68 -49 66 -134
152 -200 203 l-33 25 881 875 c485 481 889 878 898 884 30 17 106 33 132 28
14 -3 45 -15 70 -27z m-2448 -1890 c284 -54 510 -277 564 -555 46 -234 -58
-483 -306 -731 -145 -146 -246 -214 -635 -432 -470 -263 -627 -439 -629 -703
-1 -112 21 -178 82 -246 77 -86 146 -88 268 -8 179 117 260 144 439 143 189 0
295 -28 539 -142 269 -125 396 -156 631 -156 132 0 186 5 310 28 119 22 168
27 240 23 85 -4 225 -40 225 -57 0 -4 -15 -10 -32 -13 -623 -109 -1007 -159
-1673 -217 -548 -48 -1452 -30 -2067 40 -95 11 -292 34 -438 51 -300 34 -460
55 -466 62 -2 2 17 12 43 22 27 10 125 53 218 95 211 97 288 119 430 127 92 5
124 2 192 -15 92 -23 135 -48 223 -127 80 -70 122 -84 185 -61 122 47 158 224
95 472 -29 117 -44 150 -188 429 -71 137 -95 231 -95 370 0 274 132 564 397
872 207 241 456 433 740 573 212 104 426 167 578 169 31 1 90 -5 130 -13z
m898 -1582 c493 -65 931 -150 1240 -239 336 -98 511 -173 610 -262 69 -63 99
-113 107 -183 10 -87 -54 -164 -216 -260 -82 -49 -256 -127 -374 -169 l-88
-31 -108 59 c-133 74 -263 131 -361 161 -58 17 -109 23 -225 27 -130 4 -169 1
-298 -21 -170 -30 -298 -33 -413 -11 -108 21 -153 36 -349 123 -316 139 -424
166 -650 165 -167 -1 -256 -18 -372 -73 -35 -16 -63 -25 -63 -21 0 14 112 115
180 163 70 48 151 97 435 258 98 56 213 125 255 152 78 53 239 177 258 201 13
15 49 12 432 -39z m-3051 -99 c23 -212 75 -358 199 -559 56 -90 90 -162 80
-171 -1 -2 -37 8 -78 22 -103 35 -278 43 -417 18 -133 -23 -298 -79 -478 -160
-292 -132 -331 -147 -425 -172 -123 -33 -347 -38 -449 -10 -395 108 -682 286
-680 422 2 129 121 251 333 341 280 119 720 236 1146 304 134 22 638 77 716
79 l41 1 12 -115z m-1853 -1264 c369 -131 782 -238 1124 -290 221 -35 898
-111 1195 -136 431 -36 1275 -43 1675 -15 464 33 1372 154 1760 235 363 76
733 196 973 315 73 37 97 45 97 34 0 -24 -67 -327 -100 -454 -249 -946 -782
-1667 -1604 -2169 -420 -257 -968 -407 -1651 -452 -479 -31 -1106 38 -1581
175 -322 93 -687 276 -982 495 -169 124 -423 379 -555 556 -274 369 -496 841
-615 1310 -38 149 -92 407 -107 518 l-7 47 118 -59 c66 -33 182 -82 260 -110z
m5153 -2917 c1 -33 -6 -85 -15 -114 -46 -154 -299 -291 -700 -379 -617 -135
-1241 -156 -1969 -66 -657 81 -982 208 -1074 420 -7 16 -15 61 -18 99 -5 57
-4 68 8 64 282 -116 415 -162 619 -213 260 -66 572 -114 865 -136 208 -15 731
-6 915 16 275 33 576 100 826 184 123 41 399 153 482 195 56 29 60 24 61 -70z"/>
</g>
</svg>
